<?xml version="1.0" encoding="utf-8"?>
<!-- Generator: Adobe Illustrator 22.0.1, SVG Export Plug-In . SVG Version: 6.00 Build 0)  -->
<svg version="1.1" id="Layer_1" xmlns="http://www.w3.org/2000/svg" xmlns:xlink="http://www.w3.org/1999/xlink" x="0px" y="0px"
	 width="100px" height="100px" viewBox="0 0 100 100" style="enable-background:new 0 0 100 100;" xml:space="preserve">
<style type="text/css">
	.st0{fill:#FFFFFF;}
</style>
<g>
	<g>
		<g>
			<g>
				<g>
					<g>
						<g id="g95_3_" transform="translate(-15.77,-17.275)">
							<path id="path103_3_" d="M129.0399933,84.5494766c0,26.2346878-21.2671356,47.500267-47.4992142,47.500267
								c-26.2341576,0-47.5007782-21.2655792-47.5007782-47.500267c0-26.2331161,21.2666206-47.499218,47.5007782-47.499218
								C107.7728577,37.0502586,129.0399933,58.3168831,129.0399933,84.5494766"/>
							<path id="path107_3_" d="M109.3993835,84.5494766c0,15.3871918-12.4719391,27.8601608-27.8591232,27.8601608
								S53.6811371,99.9366608,53.6811371,84.5494766c0-15.3851089,12.4719315-27.8596458,27.8591232-27.8596458
								S109.3993835,69.1643677,109.3993835,84.5494766"/>
							<path id="path109_3_" class="st0" d="M109.3993835,84.5494766h0.4304428
								c-0.0005264,15.6250534-12.6645203,28.2900848-28.2895737,28.2906113
								c-15.6250534,0-28.2890434-12.6650314-28.2895622-28.2906113c0-15.622963,12.6645088-28.2895622,28.2895622-28.2900848
								c15.6250534,0,28.2890472,12.6671219,28.2895737,28.2900848H109.3993835h-0.4304428
								c0-7.5751801-3.0687943-14.4300079-8.0332108-19.3949432c-4.9649429-4.9644165-11.8192444-8.0342522-19.3954697-8.0347748
								c-7.5762253,0-14.4310532,3.0698395-19.3954659,8.0347748c-4.9644165,4.9654541-8.0332108,11.8197632-8.0337334,19.3949432
								c0,7.5762253,3.0693169,14.4310532,8.0337334,19.3959885c4.9649391,4.9644165,11.8192406,8.0337296,19.3954659,8.034256
								c7.5762253,0,14.4305267-3.0693207,19.3954697-8.034256c4.9644089-4.9649353,8.0332108-11.8197632,8.0332108-19.3959885
								H109.3993835z"/>
						</g>
						<g id="g3409_3_">
							<g>
								<path id="path111_3_" class="st0" d="M49.3459892,61.763031c0.1967468-0.27742,0.4392929-0.2878304,0.7947884-0.0353928
									l0.27742,0.196743c0.3986931,0.2826233,0.4002533,0.5511932,0.1936226,0.8431892l-0.2170448,0.3060455l-1.3163147-0.9327126
									L49.3459892,61.763031z M51.3535118,63.2287254c0.2519188-0.3560143,0.5001869-0.4044189,0.9629021-0.0765152
									l0.4340858,0.3076134c0.3700676,0.2623253,0.3903656,0.4902992,0.2035103,0.7536621l-0.3174973,0.448143
									l-1.5297127-1.0841789L51.3535118,63.2287254z M48.6495781,61.237339l-0.8369484,1.1815071l4.9810715,3.5304718
									l0.8723373-1.230957c0.5548401-0.7828102,0.4294052-1.4807892-0.3388367-2.0257378l-0.4059792-0.2878304
									c-0.5267334-0.3731918-1.0128708-0.4720802-1.4740219-0.1681175l-0.0140533-0.0104065
									c0.0837975-0.464798-0.1259575-0.8478775-0.6381187-1.2111778l-0.178009-0.1259575
									C49.848259,60.3447037,49.2241974,60.4258995,48.6495781,61.237339z"/>
							</g>
							<g>
								<path id="path113_3_" class="st0" d="M52.6391182,57.7120743c0.231617-0.2493134,0.4731255-0.2274551,0.7927017,0.0692253
									l0.4408531,0.4096222c0.3580971,0.3320694,0.3247871,0.5985603,0.0817184,0.8608856l-0.2550392,0.2748184
									l-1.3746071-1.2757149L52.6391182,57.7120743z M57.536911,60.1271362
									c-0.2310982-0.0837975-0.3971329-0.2258911-0.6146965-0.4273186l-0.6906891-0.6407204
									c-0.4663544-0.4330482-0.9061699-0.6266708-1.3792915-0.411705l-0.0124931-0.0114517
									c0.1436539-0.4497032-0.0140533-0.8697357-0.4746857-1.2970581l-0.3508072-0.3263435
									c-0.6906891-0.6407204-1.3199577-0.6417618-1.9960709,0.0869217l-0.9852867,1.0612755l4.4756775,4.1529732
									l0.6526909-0.7031784l-1.8222275-1.6910667l0.2253723-0.2430649c0.2966766-0.3195801,0.580864-0.3180199,0.996212,0.0676613
									l0.7031822,0.6526947c0.3643417,0.3377953,0.4585495,0.3778763,0.6089706,0.4460564L57.536911,60.1271362z"/>
							</g>
							<g>
								<path id="path115_3_" class="st0" d="M57.6467323,58.0222855c0.6235428,0.7515831,1.3761711,0.8525581,2.1006927,0.2513962
									c0.7250366-0.601162,0.7645988-1.3595161,0.1410522-2.1110992l-2.0267792-2.4426498
									c-0.6235466-0.7515869-1.3756523-0.852562-2.1006889-0.2514c-0.7250404,0.6011658-0.7645988,1.3589973-0.1410522,2.1110992
									L57.6467323,58.0222855z M56.3194885,54.9196548c-0.2784615-0.3357124-0.236824-0.5855484-0.0015602-0.7807312
									c0.2347412-0.194664,0.4882164-0.1894569,0.7666779,0.1457367l2.1043358,2.5368576
									c0.2784615,0.3357162,0.2363014,0.5855484,0.0015602,0.7807312
									c-0.2347374,0.1951866-0.4882202,0.1899796-0.7666779-0.1457329L56.3194885,54.9196548z"/>
							</g>
							<g>
								<path id="path117_3_" class="st0" d="M58.8318863,51.2111778l2.4806442,3.9281235
									c0.5210075,0.8254929,1.2319946,1.036293,2.0278244,0.5340233c0.7958221-0.5027924,0.9108505-1.2351189,0.389843-2.0600929
									l-2.481163-3.9286423l-0.7666817,0.4840508l2.5134392,3.9796524
									c0.2326584,0.3685074,0.1540642,0.6037674-0.1035767,0.7666779
									c-0.2576408,0.1629143-0.5038338,0.1327286-0.7364883-0.2357788l-2.5134392-3.9796524L58.8318863,51.2111778z"/>
							</g>
							<g>
								<path id="path119_3_" class="st0" d="M66.1941833,51.1622505l0.3955765-0.1837311l0.4731216,1.0201569
									c0.1837311,0.3955688,0.07547,0.6183395-0.2014313,0.7474213c-0.2769012,0.1285591-0.5168457,0.0666199-0.7005768-0.328949
									l-1.3871002-2.9902039c-0.1837311-0.3955688-0.0791168-0.626667,0.1977844-0.7552299
									c0.2768936-0.1285591,0.5204849-0.0588112,0.704216,0.3367577l0.2753372,0.5933571l0.8228912-0.3815193
									l-0.2493057-0.5381851c-0.4111862-0.8858719-1.0888672-1.1867142-1.9429855-0.7906227
									c-0.854641,0.3960915-1.0628357,1.10812-0.6516495,1.9939919l1.3355713,2.8793411
									c0.4111862,0.8858681,1.0888596,1.1867104,1.9429855,0.7906189c0.8541183-0.3966103,1.0623169-1.10812,0.6511307-1.993988
									l-0.8145676-1.7561264L65.82724,50.3705864L66.1941833,51.1622505z"/>
							</g>
							<g>
								<polygon id="polygon121_3_" class="st0" points="68.171524,46.4799423 69.9729309,52.3120079 70.8895111,52.0288658 
									70.1176224,49.52948 71.1585999,49.2078171 71.9310074,51.7072029 72.8637238,51.4193726 71.0628357,45.587307 
									70.1296005,45.8756523 70.9014816,48.3750381 69.8599854,48.696701 69.0881042,46.1967964 								"/>
							</g>
							<g>
								<polygon id="polygon123_3_" class="st0" points="74.3361816,45.7653122 75.2225723,50.9212646 76.167778,50.758873 
									75.2819138,45.6029205 76.2697983,45.433239 76.1219788,44.5739136 73.2004776,45.0761833 73.3482971,45.9355125 								
									"/>
							</g>
							<g>
								<polygon id="polygon125_3_" class="st0" points="81.8234024,45.1074142 81.7229538,50.3393593 82.6822052,50.3580971 
									82.7826614,45.1256332 83.7856445,45.1448898 83.8017807,44.2730713 80.8370743,44.2158165 80.8204269,45.0881577 								
									"/>
							</g>
							<g>
								<path id="path127_3_" class="st0" d="M85.238327,49.0365791c-0.1394882,0.9670677,0.2899094,1.5932159,1.2221069,1.7275009
									c0.9327087,0.1348038,1.5213852-0.3440437,1.6613922-1.3111115l0.4538727-3.142704
									c0.1394882-0.9665451-0.289917-1.5932159-1.2226257-1.7275009c-0.9321976-0.134285-1.5213852,0.3445625-1.660881,1.3116302
									L85.238327,49.0365791z M86.6504059,45.9709053c0.0624619-0.4320068,0.2758636-0.5683746,0.5782623-0.5246506
									c0.3024063,0.0431976,0.4684448,0.2347374,0.405983,0.6667442l-0.4710388,3.2634583
									c-0.0624619,0.4320068-0.2758636,0.5683746-0.5782623,0.5246506c-0.3024063-0.0431976-0.4684448-0.23526-0.405983-0.6667442
									L86.6504059,45.9709053z"/>
							</g>
							<g>
								<polygon id="polygon129_3_" class="st0" points="93.3501282,50.2857513 92.6651688,52.1891747 93.5671768,52.5144806 
									94.252655,50.6110573 96.7759857,47.1820793 95.9145737,46.8718681 94.2911758,49.2437325 94.2745209,49.2380066 
									94.5363235,46.375843 93.5926819,46.035965 								"/>
							</g>
							<g>
								<path id="path131_3_" class="st0" d="M96.4345398,52.0939255c-0.4439774,0.8697357-0.2389069,1.6010208,0.5996017,2.028862
									c0.838501,0.4278412,1.5505371,0.1644745,1.9945068-0.7052612l1.4422684-2.8272896
									c0.4439774-0.8702583,0.2394333-1.6010208-0.5995941-2.028862s-1.5505371-0.1644745-1.9950256,0.7052612
									L96.4345398,52.0939255z M98.7590408,49.6481514c0.1983032-0.3882828,0.4444962-0.448658,0.7161942-0.3102112
									c0.271698,0.1389694,0.3674622,0.3737106,0.1696854,0.7619972l-1.4979706,2.9360695
									c-0.1983032,0.3882828-0.4444962,0.4486618-0.7161942,0.3102112
									c-0.271698-0.1384468-0.3674622-0.3737068-0.1691589-0.7619934L98.7590408,49.6481514z"/>
							</g>
							<g>
								<path id="path133_3_" class="st0" d="M103.1779861,50.5012321l-2.6331482,3.8307915
									c-0.5532837,0.8051949-0.4668808,1.541687,0.309166,2.0751877s1.4948349,0.3497658,2.0481186-0.4549103l2.6331482-3.8307915
									l-0.7474213-0.5137215l-2.6675034,3.881279c-0.2472305,0.3591385-0.4939423,0.3799591-0.7458572,0.2071571
									c-0.2513962-0.1728058-0.3206177-0.4111862-0.0739059-0.7703247l2.6675034-3.881279l-0.7901077-0.5433884H103.1779861z"/>
							</g>
							<g>
								<path id="path135_3_" class="st0" d="M109.9214249,57.1692047c0.2363052,0.2446289,0.2009125,0.4845734-0.1129379,0.7869797
									l-0.2446289,0.2362976c-0.3513336,0.3388405-0.6157379,0.2909546-0.8640137,0.0338326l-0.2602463-0.270134
									l1.1606903-1.1195717L109.9214249,57.1692047z M108.1090927,58.8685989
									c0.3029251,0.3138542,0.3039627,0.5662918-0.1035843,0.9597778l-0.3825531,0.3690262
									c-0.3263474,0.314373-0.5538025,0.2925148-0.7781296,0.0598602l-0.3809967-0.39505l1.348587-1.3012199l0.2966843,0.3076057
									H108.1090927z M110.5673599,56.5826149l-1.0045395-1.0414963l-4.3918762,4.2362518l1.0466995,1.0857391
									c0.6657104,0.6901627,1.3746109,0.6964111,2.0522842,0.0431976l0.3575745-0.3450813
									c0.4642715-0.4476204,0.6511307-0.9066925,0.4387665-1.4162483l0.0124969-0.0119705
									c0.4408493,0.1681175,0.85672,0.0338287,1.3079834-0.4018173l0.1566696-0.1514626
									C111.2210922,57.9259949,111.2570038,57.2977638,110.5673599,56.5826149z"/>
							</g>
							<g>
								<polygon id="polygon137_3_" class="st0" points="110.3149185,62.5302315 108.6936035,63.7388039 109.266655,64.5075684 
									110.8879776,63.2989922 114.8827209,61.8322563 114.3356857,61.0983696 111.673912,62.1799431 111.6634979,62.1664085 
									113.4607468,59.9241486 112.861145,59.1205139 								"/>
							</g>
						</g>
						<g>
							<g>
								<g id="g139_3_" transform="translate(-15.77,-17.275)">
									<path id="path147_3_" class="st0" d="M87.4980164,88.389122c0.1837311-0.4268036,0.4174347-0.894722,0.7213974-1.2585449
										c0.1629181-0.2040253,0.8603668-0.8010254,1.0352478-0.9129333
										c0.5662918-0.3627777,1.4807892-0.446579,2.3151321-0.3253021
										c0.0718307,0.0135345,0.6542511,0.1889343,1.2954941,0.5355835
										c0.424202,0.2274475,1.0617981,0.6964111,1.1450729,1.0924988
										c0.1379318,0.6454086,0.0780716,0.8858719-0.0353928,1.4219742
										c-0.1613541,0.7698059-1.1940002,1.2111816-1.2954941,1.2512589
										c-0.4673996,0.2217255-0.8999252,0.4247131-1.2772827,0.2565918
										c-0.2878265-0.1311569-0.874939-0.5272522-1.0966644-0.7708435
										c-0.2597275-0.7802124-0.0562134-1.128418-0.0562134-1.128418c0.0208206,0.0411224,0.1967392,0.4143066,0.309166,0.5454712
										c0.214447,0.2513962,0.4939423,0.5829468,1.0440979,0.626152c0.2899094,0.0213394,1.2002487-0.2742996,1.2444839-0.3180237
										c0.3253098-0.3253021,0.3955765-0.8879471,0.2940826-1.3964615
										c-0.1415787-0.3648605-0.5064392-1.1320648-0.5886688-1.172142
										c-0.1816559-0.1207581-0.8015518-0.2659683-0.9431229-0.2862701
										c-0.3851624-0.0619431-0.7109909-0.1035767-1.0961533-0.019783
										c-0.3461227,0.0988998-1.622879,0.7333679-1.8045349,0.8739014
										c-0.2232895,0.1629181-0.487175,0.701622-0.6094894,0.9436493
										c-0.0197754,0.0416412-0.1951828,1.1154022-0.236824,1.5515747
										c-0.0489273,0.488739,0.0999374,1.2018051,0.2389069,1.5656281
										c0.2009125,0.3747559,1.0867767,0.9571762,1.4797516,1.1820297
										c0.1946564,0.1124268,1.1070709,0.2972031,1.2746735,0.3450851
										c0.4195099,0.1217957,1.0638733,0.2742996,1.422493,0.2258911c0.5569229-0.0744247,1.075325-0.1920624,1.6036224-0.3742294
										c0.0598526-0.0213394,0.7687607-0.2847061,0.9426041-0.4028625c0.6001205-0.4132614,1.2486496-0.9066849,1.4516373-1.25177
										c0.0822372-0.1623917,0.4273224-1.075325,0.508522-1.2975769c0.2024689-0.7109833,0.5199661-1.6109085,0.1212692-2.2282104
										c-0.3206177-0.492897-0.4200287-1.1799469-0.9092941-1.7087631
										c-0.5756607-0.6250992-1.4131165-1.1976395-1.4552841-1.2189789
										c-0.446579-0.2269363-0.6787109-0.4049454-1.0846939-0.5668106
										c-0.1837311-0.0817184-0.9842377-0.1473007-1.1669312-0.1473007
										c-0.7109833-0.0416412-1.3558731-0.0255051-2.0809097,0.1774902
										c-0.2560806,0.0707855-1.1971283,0.4356461-1.4209366,0.5792999
										c-0.4658356,0.3440475-0.7500229,0.6688309-1.0945816,1.1143646
										c-0.1020203,0.1228409-0.467926,0.7312851-0.5272598,0.8333054
										c-0.0801544,0.1327209-0.2035065,0.8910751-0.2201614,1.0643921
										c-0.0296707,0.3258286,0.0359116,0.6094894,0.0249786,0.8832703c0,0.039032,0.0811996,0.4673996,0.111908,0.6391602
										c0.0202942,0.1311569,0.0806732,0.2732544,0.1113815,0.4059753l0.1150284-0.641243"/>
									<path id="path149_3_" class="st0" d="M116.6443024,91.6354065c0.1519852,0,0.9753952,0.2836609,1.095108,0.2800217
										v6.3848267H94.9311066c0.1223145-0.1493835,0.5256958-0.4247208,0.6068878-0.490303
										c0.2649307-0.218605,0.8968048-0.6375961,1.0113068-0.7697983c0.2347412-0.2711792,0.8739014-0.7250366,0.975914-0.8046722
										c0.1389694-0.113472,1.1081238-0.2841873,1.4833908-0.488739c0.1243973-0.0702667,0.7947922-0.3815231,1.0774155-0.4955063
										c0.3482056-0.1400146,1.3912582-0.5662918,1.7623672-0.5662918c0.2149658,0,0.9264679-0.2456741,1.0774155-0.4205551
										l2.4593048-0.135849c0.3534088,0,2.1230698-0.0650558,2.6461639-0.1644745
										c0.5324554-0.099411,2.9730301-1.5520935,3.4347-1.6431808c0.15979-0.0317459,1.0300446-0.082756,1.1310196-0.1472931
										c0.1977921-0.1259537,0.8254929-0.4080582,1.2673874-0.4689636
										c0.2498322-0.0338287,1.1966019-0.1035767,1.5510559-0.1035767
										C115.6012497,91.6010513,116.3460617,91.6354065,116.6443024,91.6354065"/>
									<path id="path151_3_" class="st0" d="M76.6500015,99.5025787c1.2163849,0,4.2638397,0.0192566,5.1783371,0.0192566
										c6.7491684,0,9.5827026,0.365387,12.6374512,0.6948547c1.4136429,0.1514587,13.6976776,1.716568,13.6976776,8.9700928
										c0,6.1042862-8.8363266,8.620842-11.0296631,8.620842c-3.8557739,0-13.2162323-0.0020828-13.2162323-0.0020828
										c3.0880585-0.8322601,18.9764709-3.9229202,19.4407501-9.0445175
										c0.8629684-9.4572678-25.2322159-9.0273514-26.7083206-9.074707V99.5025787z"/>
									<path id="path153_3_" class="st0" d="M116.0551147,116.6594315c0.5381851,0,0.9670715,0.4387741,0.9670715,0.9852829
										c0,0.5543213-0.4288864,0.9878845-0.9727936,0.9878845c-0.5387115,0-0.9764404-0.4335632-0.9764404-0.9878845
										c0-0.5465088,0.4377289-0.9852829,0.9764404-0.9852829H116.0551147z M116.0493927,116.8119354
										c-0.4325256,0-0.7874985,0.3726654-0.7874985,0.8327789c0,0.4684372,0.3549728,0.8348694,0.7932205,0.8348694
										c0.4366913,0.0036392,0.7874985-0.3664246,0.7874985-0.831749c0-0.4632339-0.3508072-0.8358994-0.7874985-0.8358994
										H116.0493927z M115.8651352,118.2182922h-0.173317v-1.0982361
										c0.0900421-0.0140457,0.1780014-0.0270615,0.3096924-0.0270615c0.1655121,0,0.2768936,0.036438,0.3424835,0.0848312
										c0.064537,0.0468445,0.0973282,0.1212769,0.0973282,0.2269363c0,0.1441727-0.095253,0.2300568-0.2123642,0.2670135
										v0.0078049c0.0962906,0.0176926,0.1608353,0.1046219,0.1826935,0.2670135
										c0.0286179,0.1722794,0.0551682,0.2378616,0.0702591,0.271698h-0.1821747
										c-0.0270615-0.0338364-0.0546494-0.1368942-0.0749435-0.2795105
										c-0.0255051-0.141571-0.0973358-0.1925735-0.2383804-0.1925735h-0.1212769V118.2182922z M115.8651352,117.610878h0.1275177
										c0.1436539,0,0.2670135-0.0541382,0.2670135-0.1894608c0-0.0952454-0.0713043-0.1925735-0.2670135-0.1925735
										c-0.0567322,0-0.096817,0.0062408-0.1275177,0.0088425V117.610878z"/>
								</g>
								<g id="g3425_3_">
									<g>
										<path id="path155_3_" class="st0" d="M59.3364906,96.956871
											c-0.1254387-0.0218582-0.9009628-0.6516495-0.7302437-1.6457825
											c0.1046181-0.607933,0.858284-1.3527451,2.4504585-1.0789719c1.7077179,0.294075,2.0538445,1.2278366,1.9497452,1.835762
											c-0.1493797,0.8681717-0.7266006,1.2757187-1.2085724,1.1929626l-0.3763123-0.0650635l-0.2107964,1.2252274
											l2.6919632,0.4632339l0.2108002-1.2252274l-0.3664246-0.0629807
											c0.1780052-0.2279739,0.3867264-0.6886063,0.4944611-1.3157959
											c0.3154221-1.8331604-0.7968636-3.3956604-2.890789-3.7558441
											c-1.9492264-0.3351898-3.6543465,0.742218-3.9697609,2.5758972
											c-0.3185387,1.8529358,0.6766357,2.6498032,1.4943199,3.0386047l0.4611549-1.1820297L59.3364906,96.956871z"/>
									</g>
									<g>
										<polygon id="polygon157_3_" class="st0" points="62.4739914,102.8972015 63.6981812,102.9169846 63.7439842,100.1063461 
											62.5197945,100.0865707 62.5099068,100.7033463 58.102932,100.6315231 58.1133423,100.01474 56.899044,99.9954834 
											56.853241,102.8055954 58.067543,102.8253784 58.0779495,102.2086029 62.4844017,102.2799072 										"/>
									</g>
									<g>
										<path id="path159_3_" class="st0" d="M63.7731323,104.7095413l-2.4192314-0.3560104l0.1988297,1.207016l0.3862,0.0551682
											c0.2508774,0.0775528,0.7750053,0.2493134,0.8145638,0.4908218l0.0999336,0.6084518l-4.3460732,0.7146301
											l-0.0999336-0.6084518l-1.2168999,0.2003937l0.4590683,2.7908554l1.2169037-0.2003937l-0.1014938-0.6183395
											l4.3460732-0.7146301l0.1207504,0.7338867c0.0208206,0.1254425-0.4226341,0.4460602-0.6339531,0.6100159
											l-0.347683,0.176445l0.1983032,1.2070084l2.1777229-1.1122818L63.7731323,104.7095413z"/>
									</g>
									<g>
										<path id="path161_3_" class="st0" d="M65.3090897,115.5351715L65.3090897,115.5351715l-1.253334-0.1504211
											l0.7453384-1.1122818l0.0473633,0.1181564l1.1268539-0.4533463l-0.9571762-2.380188l-1.1268539,0.4528198
											l0.2264099,0.5636826c0,0-0.0707855,0.1655121-1.6051826,2.2287292
											c-0.0634995,0.0780716-0.2430687,0.23526-0.4247169,0.3081284l-1.4537239,0.5845108l-0.2300568-0.5725403
											l-1.1450729,0.4606247l1.0487823,2.6076431l1.1445541-0.4606247l-0.2227707-0.5538025l1.4537239-0.5845032
											c0.1275177-0.0515289,0.354454-0.1426163,0.5163231-0.0811996
											c2.539463,0.4356461,2.7013359,0.4970627,2.7013359,0.4970627l0.2264099,0.5631714l1.1268616-0.4528198
											l-0.8182068-2.0351105l-0.6813202,0.2737732l-0.4455414,0.1785278V115.5351715z"/>
									</g>
									<g>
										<path id="path163_3_" class="st0" d="M66.5759583,126.2718048
											c-0.6219788-0.7807312-0.3237457-1.8201447,0.7484665-2.6737442
											c1.0867767-0.8660965,2.1667862-0.9249039,2.7887726-0.1441727
											c0.5491104,0.6891327,0.2560806,1.7353058-0.8307037,2.6019135
											C68.210289,126.9094086,67.1245499,126.9609299,66.5759583,126.2718048z M71.100563,122.6669083
											c-1.012352-1.2710342-2.9256592-1.8498154-4.8009796-0.3554916
											c-1.9601593,1.5614624-1.7160492,3.4700851-0.7037048,4.7406006
											c0.9452057,1.1867218,2.7263184,2.0080414,4.7780838,0.3737106
											C72.3492126,125.8528137,72.0462875,123.8536148,71.100563,122.6669083z"/>
									</g>
									<g>
										<path id="path165_3_" class="st0" d="M73.6087952,125.7502747l-0.7833405,0.9405289l0.4736481,0.3945236
											l-2.8262482,3.3920135l-0.4736481-0.39505l-0.7895813,0.9478149l2.1735611,1.8107758l0.7895813-0.9477997
											l-0.4814529-0.4013062l1.0961456-1.3163147l0.6693497,0.5579681l-0.3133392,0.3757935l0.9405289,0.7833405
											l1.4162445-1.6999207l-0.9400024-0.7833405l-0.3195724,0.383606l-0.6693497-0.5574493l0.9462433-1.1356964
											l1.2335587,1.0279541c0.5564041,0.4637604,0.2597275,1.0191193,0.0437241,1.4766388l0.9400024,0.7833252
											l1.1154022-2.1038055L73.6087952,125.7502747z"/>
									</g>
									<g>
										<path id="path167_3_" class="st0" d="M82.8552628,134.9675903
											c-0.6745529-0.5787811-0.9665451-0.8374481-0.8192444-1.1684875
											c0.1514587-0.3398743,0.6979752-0.3643341,1.0378571-0.2133942
											c0.8941956,0.3981628,0.97435,1.1086426,0.8270493,1.4396667l-0.0478821,0.1072235l1.1268539,0.5012207
											l0.9467697-2.1282806l-1.1268616-0.5012207l-0.3023987,0.6797485
											c0.0437164-0.3877563-0.135849-0.874939-0.9228287-1.2247009c-1.2340775-0.549118-2.5899506-0.198822-3.0354843,0.802597
											c-0.549118,1.2340851,0.5376587,2.1142273,1.2122116,2.6930084
											c0.8634949,0.7807312,1.2538605,1.0826111,1.0029831,1.6463013
											c-0.1472931,0.3310242-0.9124146,0.2690887-1.4755783,0.018219
											c-0.6709137-0.2982483-1.0352554-0.9962158-0.835907-1.4433136l0.2503586-0.5631714l-1.1180115-0.4975891
											l-1.1461182,2.5753784l1.1180115,0.4975891l0.2982407-0.6709137
											c0.0333099,0.5506744,0.5959549,1.0685577,1.1591187,1.3194427
											c0.5636902,0.250351,2.3520889,1.0461731,3.1479111-0.742218
											c0.7010956-1.5739594-0.5022659-2.5056305-1.2970505-3.1270905V134.9675903z"/>
									</g>
									<g>
										<path id="path169_3_" class="st0" d="M89.0985184,138.1680756l0.7968674-1.2267761l0.2966766,1.4479828
											L89.0985184,138.1680756z M90.9936142,134.8161316l-0.8827515-0.1779938c0,0-2.9912415,4.3783417-3.3670349,5.0513306
											l-0.7193146-0.1452179l-0.2420273,1.1992035l2.3885193,0.4824982l0.2404633-1.1898346l-0.3549652-0.0718384
											l0.4158707-0.6750641l1.8992615,0.383606c0.0744247,0.274292,0.1217957,0.533493,0.1884155,0.7968597
											l-0.3549728-0.0718231l-0.2399445,1.1898346l2.7632675,0.5579681l0.2420273-1.1992035l-0.7198334-0.1452179
											c-0.0780792-0.2555695-1.2767639-5.9892578-1.2767639-5.9892578L90.9936142,134.8161316z"/>
									</g>
									<g>
										<path id="path171_3_" class="st0" d="M99.0013199,136.5883942l0.7338943-0.0197754l0.0655823,2.4462891
											l-2.6815567-3.6002197l-2.1917725,0.0588226l0.0327911,1.2231445l0.7338867-0.0197754l0.1186676,4.4132233
											l-0.7338867,0.0197754l0.0327911,1.2231598l2.5732956-0.0692291l-0.0327911-1.2231445
											c0,0-0.6167755,0.0166473-0.743782,0.0197754l-0.0822372-3.062561l3.3045807,4.1998291l0.9785156-0.0260315
											l-0.1509399-5.635849l0.6167755-0.0166473l-0.0327911-1.2231598l-2.5732956,0.0687103L99.0013199,136.5883942z"/>
									</g>
									<g>
										<path id="path173_3_" class="st0" d="M103.2063446,134.9675903l-0.135849,2.4411011l1.1841125-0.3065796
											l0.0208206-0.3898315c0.054657-0.2571259,0.1785278-0.7942657,0.4153442-0.8556824l0.5970078-0.1545868
											l1.1044769,4.2633209l-0.5970078,0.1545715l0.3091736,1.1940155l2.7382812-0.7094421l-0.309166-1.1934662
											l-0.6063614,0.1571808l-1.1044769-4.2638397l0.7203522-0.1863251
											c0.1228333-0.0317535,0.4824905,0.3804779,0.6646576,0.5761719l0.2066345,0.3305054l1.1841125-0.3065643
											l-1.3043442-2.0684204L103.2063446,134.9675903L103.2063446,134.9675903z"/>
									</g>
									<g>
										<path id="path175_3_" class="st0" d="M112.551712,135.8269196l-0.0978546-1.4594421l1.1055145,0.9806061
											l-1.0076675,0.4788361H112.551712z M112.0588074,132.0086212l-0.81353,0.3862152
											c0,0,0.2316208,5.2975159,0.3346786,6.0615997l-0.6631012,0.3148804l0.5251694,1.105011l2.201149-1.0461884
											l-0.5210114-1.0961456l-0.3268738,0.1556244l-0.0718231-0.7895813l1.7504044-0.8317413
											c0.2243271,0.1753998,0.4174347,0.3544464,0.628746,0.5246429l-0.3268738,0.1556244l0.521019,1.0961609
											l2.5457077-1.210144l-0.525177-1.1049957l-0.6631012,0.3148956
											c-0.2159958-0.1576996-4.6125641-4.0280609-4.6125641-4.0280609L112.0588074,132.0086212L112.0588074,132.0086212z"/>
									</g>
									<g>
										<path id="path177_3_" class="st0" d="M124.0550156,128.9648132l-4.9227829-1.5172272l-1.312149,1.2902985
											l0.8577652,0.8728485l0.530899-0.5215149l3.0948257,3.1484222l-0.5309067,0.5215302l0.8577652,0.8728638
											l1.7457199-1.7155304l-0.8577652-0.8728638l-0.3492508,0.3430023l-1.6265259-1.6546326
											c1.0284882,0.3482056,3.7896805,1.2439575,3.7896805,1.2439575l0.5303726-0.5215302l-1.2777939-3.5622101
											l1.5505371,1.5776062l-0.3419647,0.3362274l0.8577652,0.8728638l2.0038834-1.9695282l-0.8577652-0.8728561
											l-0.5236053,0.5147552l-3.0948257-3.1484299l0.523613-0.5147552l-0.8577652-0.8728638l-1.3964691,1.3725204
											l1.6067505,4.7770462H124.0550156z"/>
									</g>
									<g>
										<path id="path179_3_" class="st0" d="M130.6912384,122.5185623
											c-0.5267334,0.8478775-1.6051788,0.9155426-2.769516,0.1931076
											c-1.1809845-0.7333679-1.5989456-1.7301102-1.0722046-2.57798
											c0.464798-0.7484665,1.5484619-0.8244553,2.7294464-0.0910873
											C130.7427673,120.7650375,131.1555176,121.7701035,130.6912384,122.5185623z M125.7767868,119.4674683
											c-0.85672,1.3803253-0.7593918,3.3764038,1.2778015,4.6411896
											c2.1287918,1.3215256,3.8438034,0.4512711,4.7010422-0.9290695
											c0.8005066-1.2887268,0.9759216-3.2421265-1.2528076-4.6255722
											c-2.1454468-1.3319321-3.9255219-0.3752747-4.7260361,0.9134598V119.4674683z"/>
									</g>
									<g>
										<path id="path181_3_" class="st0" d="M130.3883057,112.6823807l0.2435913-0.6927719l2.3094025,0.8124847
											l-4.3210907,1.2200241l-0.7276382,2.0689392l1.1544418,0.405983l0.2435913-0.6927643l4.1654663,1.4646454
											l-0.243576,0.6927719l1.1544342,0.4059753l0.854126-2.4291229l-1.1544495-0.4059753
											c0,0-0.2045441,0.5819016-0.2467041,0.7021332l-2.8907928-1.01651l5.1044312-1.5885315l0.3247833-0.9238663
											l-5.3204346-1.8711548l0.2045593-0.5819016l-1.1544495-0.405983l-0.854126,2.4291229l1.1544495,0.4065094
											L130.3883057,112.6823807z"/>
									</g>
									<g>
										<polygon id="polygon183_3_" class="st0" points="131.9071045,106.0149231 130.6985168,105.8202667 
											130.2524719,108.5944672 131.4600067,108.7891312 131.5583649,108.1801605 135.9075775,108.8807373 
											135.8097229,109.4897079 137.0083923,109.6822891 137.4549713,106.9086075 136.2563019,106.7154999 
											136.1584473,107.3244705 131.8087311,106.6238937 										"/>
									</g>
									<g>
										<path id="path185_3_" class="st0" d="M135.5786133,100.4863052
											c0.1275177,0.0020752,0.9910126,0.5059128,0.97435,1.5140915
											c-0.0098877,0.6173019-0.6407166,1.4688187-2.2563171,1.442276
											c-1.7332153-0.0281067-2.2188416-0.8978424-2.2089539-1.5146179
											c0.0140533-0.8811874,0.5215302-1.3730545,1.0113068-1.3647232l0.3815155,0.0062485l0.0203094-1.2434464
											l-2.7320404-0.0442429l-0.0202942,1.2439651l0.3721466,0.0062485
											c-0.1410522,0.251915-0.2763824,0.7396088-0.2867889,1.3766861
											c-0.0301971,1.8602219,1.309021,3.2337952,3.4341888,3.2681427
											c1.9778442,0.0322723,3.4981842-1.2949677,3.5283813-3.1557159
											c0.0307159-1.8800049-1.0758514-2.5155182-1.9434967-2.7742004l-0.274292,1.2392731L135.5786133,100.4863052z"/>
									</g>
									<g>
										<path id="path187_3_" class="st0" d="M133.9859314,95.2574768l-1.4401855-0.2607574l1.2210541-0.8338242
											L133.9859314,95.2574768z M130.1603394,94.8051758l0.1769562,0.8832626c0,0,5.1970825,1.067009,5.9632416,1.1534042
											l0.144165,0.7203598l1.2002411-0.2404633l-0.4783173-2.3906021l-1.1908875,0.2383804l0.0713043,0.3554916
											l-0.783844-0.1228333l-0.3804779-1.9008255c0.2248535-0.174881,0.4455414-0.3190536,0.6625671-0.4824905
											l0.0713043,0.3554916l1.1903687-0.2383804l-0.5532837-2.765358l-1.2002411,0.2399445l0.144165,0.7203598
											c-0.2055969,0.1707153-5.032608,3.4940338-5.032608,3.4940338l-0.0046844-0.019783L130.1603394,94.8051758z"/>
									</g>
								</g>
								<g>
									<g>
										<g id="g189_3_" transform="translate(-15.77,-17.275)">
											<path id="path197_3_" class="st0" d="M80.0896454,103.9917908c0,0.817688-0.6631012,1.4807892-1.4813156,1.4807892
												c-0.8181992,0-1.4818268-0.6631012-1.4818268-1.4807892c0-0.8176804,0.6636276-1.481308,1.4818268-1.481308
												C79.4265366,102.5104828,80.0896454,103.1741104,80.0896454,103.9917908"/>
											<path id="path199_3_" class="st0" d="M148.3011627,102.5120468c0,0.8166428-0.6631012,1.479744-1.4807892,1.479744
												c-0.8187256,0-1.4818268-0.6631012-1.4818268-1.479744c0-0.8197708,0.6631012-1.4823532,1.4818268-1.4823532
												C147.6380615,101.0296936,148.3011627,101.692276,148.3011627,102.5120468"/>
										</g>
										<g id="g201_3_" transform="translate(-15.77,-17.275)">
										</g>
										<g id="g203_3_" transform="translate(-15.77,-17.275)">
										</g>
										<g id="g205_3_" transform="translate(-15.77,-17.275)">
										</g>
										<g id="g207_3_" transform="translate(-15.77,-17.275)">
										</g>
										<g id="g209_3_" transform="translate(-15.77,-17.275)">
										</g>
										<g id="g211_3_" transform="translate(-15.77,-17.275)">
										</g>
									</g>
								</g>
							</g>
						</g>
					</g>
				</g>
			</g>
		</g>
	</g>
</g>
</svg>
