<?xml version="1.0" encoding="utf-8"?>
<!-- Generator: Adobe Illustrator 23.0.1, SVG Export Plug-In . SVG Version: 6.00 Build 0)  -->
<svg version="1.1" id="Layer_1" xmlns="http://www.w3.org/2000/svg" xmlns:xlink="http://www.w3.org/1999/xlink" x="0px" y="0px"
	 viewBox="0 0 245 150" style="enable-background:new 0 0 245 150;" xml:space="preserve">
<style type="text/css">
	.st0{fill:white; fill:hsl(0, 0%, 99%);}
</style>
<g>
	<g>
		<path class="st0" d="M86.3481293,66.7059555l-16.7297287,2.6762466l-1.8434753-6.328495l-13.4519424,2.1519051
			L52.5473251,72.11306l-16.0464783,2.5669479l16.3878212-49.7375336l17.0710716-2.730854L86.3481293,66.7059555z
			 M64.5655136,51.7535057l-3.4823685-12.0754166l-3.4823685,13.1895638L64.5655136,51.7535057z"/>
	</g>
	<g>
		<path class="st0" d="M102.8392181,134.3798828l-16.7297363,2.6762543l-1.8434753-6.3285065l-13.4519348,2.1519012
			l-1.7756577,6.9074554l-16.0464821,2.5669403l16.3878212-49.7375259l17.0710754-2.7308578L102.8392181,134.3798828z
			 M81.0566025,119.4274292l-3.4823685-12.0754166l-3.4823761,13.1895676L81.0566025,119.4274292z"/>
	</g>
	<g>
		<path class="st0" d="M32.817131,142.3718872c-3.755331,3.4687958-8.4668713,5.3832855-13.9300442,6.2572327
			c-5.4626074,0.8738556-11.7446632,0.3766632-18.1634808-3.3764496l6.8285422-12.7008209
			c4.3701992,2.9884186,10.5154905,3.4391022,12.5641108,3.1113892s3.4823685-1.1713715,3.4823685-2.5373077
			c0-1.3653717-1.7067108-1.6388397-3.4139881-1.9122162c-1.7072754-0.2049866-5.4626074-0.8328552-6.8285418-1.092453
			c-1.3653688-0.328064-4.096673-0.7789764-6.4866343-2.4447098c-2.3899612-1.6662979-4.3023825-4.2284317-4.3023825-9.3497009
			c0-5.1212616,2.6634877-9.5078125,5.4631729-12.2778244c2.8675013-2.848671,7.579608-5.3091812,13.8616629-6.3141174
			s12.7008724,0.2214432,16.7975445,2.9806519l-5.8723297,11.8646088c-3.5507507-2.5730133-8.7403984-3.108757-11.19874-2.7154999
			c-2.4577789,0.3931656-3.8237133,1.0897827-3.8237133,2.5241013c0,1.3653641,2.1853828,1.4938736,3.2777901,1.6604691
			c1.0924091,0.1665878,3.9604759,0.5272293,5.599371,0.8115463c1.638895,0.2837448,5.4626064,1.038002,7.8525677,2.7042999
			s4.4385834,4.5479889,4.4385834,9.5324936C38.9629898,134.014267,36.5730286,138.83461,32.817131,142.3718872z"/>
	</g>
	<g>
		<path class="st0" d="M177.5566101,122.4273682l-15.1592255,2.4250107l-0.5459137-26.8849258l-6.1458588,27.9554062
			l-13.3151703,2.1300278l-6.1458588-25.9891129l-0.545929,27.0595932l-15.1592178,2.4250183l2.731308-47.5529099
			l19.8023758-3.167778l5.9407196,24.6559906l6.0090942-26.5675964l19.8023682-3.167778L177.5566101,122.4273682z"/>
	</g>
	<g>
		<path class="st0" d="M218.6695099,116.6699982c-14.6811218,2.3485336-25.6063385-4.8493118-25.6063385-20.2131042
			s10.9252167-26.1254196,25.6063385-28.4739532c14.6811066-2.3485336,25.6068878,4.9175949,25.6068878,20.281395
			S233.3506165,114.3214645,218.6695099,116.6699982z M218.6695099,81.0257187
			c-6.1452942,0.9830627-10.1057739,6.1230164-10.1057739,12.6102142s3.9604797,10.3600388,10.1057739,9.376976
			c6.1458435-0.9831467,10.0379486-6.1121597,10.0379486-12.5993576
			C228.7074585,83.9263458,224.8153534,80.042572,218.6695099,81.0257187z"/>
	</g>
	<g>
		<path class="st0" d="M146.2073669,57.1302948l-17.7537537,2.8400612l-7.5112305-14.5035706l-1.9802399,0.3167801v15.7051353
			l-15.4327393,2.4687729V16.8414955l20.4856262-3.2770796c5.8039551-0.9284563,10.2425232-0.6144667,13.6565247,1.2293596
			c3.4145508,1.8437366,5.8045044,5.5586529,5.8045044,10.6799183c0,9.559845-5.8045044,13.9023819-7.8525696,15.4591789
			L146.2073669,57.1302948z M126.1998444,25.71064c-0.6826859-0.4367123-1.7067108-0.6148071-3.4139862-0.3416939
			l-3.8920975,0.6226158v8.1944771l3.8920975-0.6226158c1.7072754-0.2731133,2.7996826-0.7892075,3.4139862-1.3655815
			c0.7510681-0.6666355,1.7072754-1.502285,1.7072754-3.5509052S126.8830948,26.0794468,126.1998444,25.71064z"/>
	</g>
	<g>
		<path class="st0" d="M202.5575256,15.3342733l-13.4470062,2.1511145v32.7817078l-15.4321899,2.4686775V19.9540672
			l-13.9577789,2.2328224V7.8526168L202.5575256,1V15.3342733z"/>
	</g>
</g>
</svg>
